<?xml version="1.0" encoding="UTF-8"?>
<svg id="Capa_1" data-name="Capa 1" xmlns="http://www.w3.org/2000/svg" viewBox="0 0 21.65 21.3">
  <path d="m21.43,9.77l-2.47-2.47c-.29-.29-.77-.29-1.06,0l-.53.53-.35-.35.53-.53c.16-.16.24-.38.22-.6-.02-.22-.14-.43-.33-.55L8.94.13c-.3-.2-.69-.16-.95.09l-1.06,1.06c-.29.29-.29.77,0,1.06,2.7,2.7,2.96,5.11,2.97,5.86l-1.21,1.21L.22,17.9c-.14.14-.22.33-.22.53s.08.39.22.53l2.12,2.12c.15.15.34.22.53.22s.38-.07.53-.22l8.48-8.48s0,0,0,0l1.24-1.24.35.35-.53.53c-.14.14-.22.33-.22.53s.08.39.22.53l2.47,2.48c.14.14.33.22.53.22s.39-.08.53-.22l4.95-4.95c.14-.14.22-.33.22-.53s-.08-.39-.22-.53ZM2.87,19.49l-1.06-1.06,7.42-7.42,1.06,1.06-7.42,7.42Zm13.08-5.3l-1.41-1.42.53-.53c.29-.29.29-.77,0-1.06l-1.41-1.42c-.14-.14-.33-.22-.53-.22s-.39.08-.53.22l-1.24,1.24-1.06-1.06.88-.88c.12-.12.2-.28.22-.45.02-.14.32-3.26-2.88-6.79l.11-.11,7.21,4.81-.41.41c-.29.29-.29.77,0,1.06l1.41,1.42c.14.14.33.22.53.22h0c.2,0,.39-.08.53-.22l.53-.53,1.41,1.41-3.89,3.89Z"/>
</svg>