<?xml version="1.0" encoding="UTF-8"?>
<svg id="Capa_1" data-name="Capa 1" xmlns="http://www.w3.org/2000/svg" viewBox="0 0 17.5 21.21">
  <path d="m15.93,3.22c-.39-.17-.81-.21-1.43-.22-.01-.36-.04-.63-.11-.88-.28-.97-1.03-1.71-2-2-.41-.12-.82-.12-1.63-.12H3.75c-.82,0-1.22,0-1.63.12C1.15.41.41,1.15.12,2.12c-.12.41-.12.82-.12,1.63s0,1.22.12,1.63c.28.97,1.03,1.71,2,2,.41.12.82.12,1.63.12h7c.82,0,1.22,0,1.63-.12.97-.28,1.71-1.03,2-2,.08-.26.1-.52.11-.88.41,0,.68.02.82.08.62.28.69.91.69,2.17,0,.88,0,1.32-.09,1.61-.31.95-1.83,1.49-3.29,1.91-1.25.36-2.01.57-2.56,1.3-.49.65-.55,1.38-.55,2.46-.46.35-.91.7-1.37,1.05-.04,2.04-.08,4.09-.12,6.13h4.29l.06-6.13c-.46-.35-.91-.7-1.37-1.05,0-.9.04-1.27.25-1.55.24-.32.64-.44,1.79-.77,1.92-.54,3.77-1.27,4.3-2.89.17-.51.17-1.03.17-2.07,0-1.19,0-2.82-1.57-3.54Zm-2.99,1.74c-.14.48-.51.84-.98.98-.2.06-.56.06-1.21.06H3.75c-.65,0-1.01,0-1.21-.06-.48-.14-.84-.51-.98-.98-.06-.2-.06-.56-.06-1.21s0-1.01.06-1.21c.14-.48.51-.84.98-.98.2-.06.56-.06,1.21-.06h7c.65,0,1.01,0,1.21.06.48.14.84.51.98.98.06.2.06.56.06,1.21s0,1.01-.06,1.21Zm-1.94,14.29c0,.26,0,.53-.02.6-.02.06-.07.11-.13.13-.14.04-1.07.04-1.19,0-.06-.03-.11-.07-.13-.13-.02-.07-.02-.34-.02-.6v-3c0-.26,0-.53.02-.6.03-.06.07-.11.13-.13.07-.02.34-.02.6-.02s.53,0,.6.02c.06.02.11.07.13.13.02.07.02.34.02.6v3Z"/>
</svg>