<?xml version="1.0" encoding="UTF-8"?>
<svg id="Capa_1" data-name="Capa 1" xmlns="http://www.w3.org/2000/svg" viewBox="0 0 14.74 14.04">
  <path d="m14.62,12.57l-3.21-3.83c-.18-.21-.49-.24-.71-.06l-.96-1.15c-.18-.21-.49-.24-.7-.06l-1.15.97-.19-.22,1.2-3.25L1.28.08c-.19-.12-.43-.1-.59.04L.18.54C.01.68-.05.92.04,1.12l3.5,8.35,3.4-.61.5.6c.18.21.49.24.71.06l1.15-.96.64.76c-.21.18-.24.5-.06.71l3.21,3.83c.18.21.49.24.7.06l.77-.64c.21-.18.24-.49.06-.71Zm-7.86-4.63c-.87.14-1.74.27-2.61.41L1.15,1.19l6.53,4.19c-.31.85-.61,1.71-.92,2.56Z"/>
</svg>